<svg width="20" height="20" viewBox="0 0 20 20" fill="none" xmlns="http://www.w3.org/2000/svg">
<path d="M3.23738 12.1532C3.37086 12.2425 3.5218 12.2852 3.67113 12.2852C3.92309 12.2852 4.17047 12.1635 4.32113 11.9384C5.58352 10.052 7.69379 8.92578 9.96609 8.92578C12.2317 8.92578 14.3385 10.0468 15.6018 11.9246C15.8427 12.2826 16.3281 12.3776 16.6861 12.1367C17.0441 11.8959 17.139 11.4104 16.8982 11.0524C15.8888 9.55219 14.4417 8.4452 12.788 7.85301C13.7798 7.04289 14.4141 5.81098 14.4141 4.43359C14.4141 1.99965 12.4339 0.0195312 10 0.0195312C7.56605 0.0195312 5.58594 1.99965 5.58594 4.43359C5.58594 5.80109 6.21102 7.02527 7.19047 7.83559C5.51094 8.42559 4.04207 9.54598 3.02258 11.0694C2.78262 11.428 2.87879 11.9132 3.23738 12.1532ZM10 1.58203C11.5723 1.58203 12.8516 2.86125 12.8516 4.43359C12.8516 6.00594 11.5723 7.28516 10 7.28516C8.42766 7.28516 7.14844 6.00594 7.14844 4.43359C7.14844 2.86125 8.42766 1.58203 10 1.58203ZM13.1155 13.8527L11.9509 14.6929C11.7776 14.8179 11.705 15.0395 11.7712 15.2418L12.2403 16.6012C12.2601 16.6618 12.2677 16.7209 12.2652 16.7773C12.2486 17.1425 11.7909 17.3922 11.4553 17.1501L10.2907 16.3097C10.204 16.2472 10.102 16.2159 10 16.2159C9.89805 16.2159 9.79605 16.2472 9.70941 16.3097L8.54477 17.1501C8.20914 17.3922 7.74934 17.1425 7.7348 16.7773C7.73258 16.7209 7.74039 16.6618 7.7602 16.6012L8.22879 15.2418C8.295 15.0395 8.22246 14.8179 8.04918 14.6929L6.88449 13.8527C6.49699 13.5732 6.69613 12.9102 7.17512 12.9102H8.61473C8.82895 12.9102 9.01879 12.8277 9.08496 12.6254L9.5298 11.2572C9.60383 11.0311 9.80191 10.918 10 10.918C10.1982 10.918 10.3962 11.0311 10.4703 11.2572L10.9151 12.6254C10.9813 12.8277 11.1711 12.9102 11.3854 12.9102H12.825C13.3039 12.9102 13.503 13.5732 13.1155 13.8527ZM19.7952 16.5871L18.6305 17.4273C18.4573 17.5523 18.3847 17.7739 18.4509 17.9762L18.92 19.3356C18.9398 19.3962 18.9474 19.4553 18.9448 19.5117C18.9282 19.8768 18.4706 20.1266 18.135 19.8845L16.9704 19.0441C16.8837 18.9816 16.7817 18.9503 16.6797 18.9503C16.5777 18.9503 16.4757 18.9816 16.3891 19.0441L15.2245 19.8845C14.8888 20.1266 14.429 19.8768 14.4145 19.5117C14.4123 19.4553 14.4201 19.3961 14.4399 19.3356L14.9085 17.9762C14.9747 17.7739 14.9021 17.5523 14.7289 17.4273L13.5642 16.5871C13.1767 16.3076 13.3758 15.6445 13.8548 15.6445H15.2944C15.5086 15.6445 15.6985 15.5621 15.7646 15.3598L16.2095 13.9916C16.2835 13.7654 16.4816 13.6523 16.6797 13.6523C16.8779 13.6523 17.0759 13.7654 17.15 13.9916L17.5948 15.3598C17.661 15.5621 17.8508 15.6445 18.065 15.6445H19.5046C19.9836 15.6445 20.1827 16.3076 19.7952 16.5871ZM6.43586 16.5871L5.27117 17.4273C5.09789 17.5523 5.02535 17.7739 5.09156 17.9762L5.56059 19.3356C5.58039 19.3962 5.58801 19.4553 5.58547 19.5117C5.56887 19.8768 5.11125 20.1266 4.77562 19.8845L3.61094 19.0441C3.5243 18.9816 3.4223 18.9503 3.32031 18.9503C3.21832 18.9503 3.11633 18.9816 3.02969 19.0441L1.86504 19.8845C1.52941 20.1266 1.06961 19.8768 1.05508 19.5117C1.05285 19.4553 1.06066 19.3961 1.08047 19.3356L1.54906 17.9762C1.61527 17.7739 1.54273 17.5523 1.36945 17.4273L0.204766 16.5871C-0.182734 16.3076 0.0164062 15.6445 0.495391 15.6445H1.935C2.14922 15.6445 2.33906 15.5621 2.40523 15.3598L2.85008 13.9916C2.9241 13.7654 3.12219 13.6523 3.32031 13.6523C3.51844 13.6523 3.71652 13.7654 3.79055 13.9916L4.23539 15.3598C4.3016 15.5621 4.49141 15.6445 4.70563 15.6445H6.14523C6.62422 15.6445 6.82336 16.3076 6.43586 16.5871Z" fill="#C2CFE0"/>
</svg>
