<svg width="16" height="16" viewBox="0 0 16 16" fill="none" xmlns="http://www.w3.org/2000/svg">
<path d="M1.33333 0.5H6.33333C6.79167 0.5 7.16667 0.875 7.16667 1.33333V6.33333C7.16667 6.79167 6.79167 7.16667 6.33333 7.16667H1.33333C0.875 7.16667 0.5 6.79167 0.5 6.33333V1.33333C0.5 0.875 0.875 0.5 1.33333 0.5ZM9.66667 0.5H14.6667C15.125 0.5 15.5 0.875 15.5 1.33333V6.33333C15.5 6.79167 15.125 7.16667 14.6667 7.16667H9.66667C9.20833 7.16667 8.83333 6.79167 8.83333 6.33333V1.33333C8.83333 0.875 9.20833 0.5 9.66667 0.5ZM1.33333 8.83333H6.33333C6.79167 8.83333 7.16667 9.20833 7.16667 9.66667V14.6667C7.16667 15.125 6.79167 15.5 6.33333 15.5H1.33333C0.875 15.5 0.5 15.125 0.5 14.6667V9.66667C0.5 9.20833 0.875 8.83333 1.33333 8.83333ZM12.1667 8.83333C11.7083 8.83333 11.3333 9.20833 11.3333 9.66667V11.3333H9.66667C9.20833 11.3333 8.83333 11.7083 8.83333 12.1667C8.83333 12.625 9.20833 13 9.66667 13H11.3333V14.6667C11.3333 15.125 11.7083 15.5 12.1667 15.5C12.625 15.5 13 15.125 13 14.6667V13H14.6667C15.125 13 15.5 12.625 15.5 12.1667C15.5 11.7083 15.125 11.3333 14.6667 11.3333H13V9.66667C13 9.20833 12.625 8.83333 12.1667 8.83333Z" fill="#C2CFE0"/>
</svg>
