<svg width="16" height="20" viewBox="0 0 16 20" fill="none" xmlns="http://www.w3.org/2000/svg">
<path d="M2.14062 20H13.8594C14.8287 20 15.6172 19.2115 15.6172 18.2422V5.85938H11.5156C10.5463 5.85938 9.75781 5.07086 9.75781 4.10156V0H2.14062C1.17133 0 0.382812 0.788516 0.382812 1.75781V18.2422C0.382812 19.2115 1.17133 20 2.14062 20ZM4.48438 8.24219H11.5156C11.8395 8.24219 12.1016 8.50426 12.1016 8.82812C12.1016 9.15199 11.8395 9.41406 11.5156 9.41406H4.48438C4.16051 9.41406 3.89844 9.15199 3.89844 8.82812C3.89844 8.50426 4.16051 8.24219 4.48438 8.24219ZM4.48438 10.5859H11.5156C11.8395 10.5859 12.1016 10.848 12.1016 11.1719C12.1016 11.4957 11.8395 11.7578 11.5156 11.7578H4.48438C4.16051 11.7578 3.89844 11.4957 3.89844 11.1719C3.89844 10.848 4.16051 10.5859 4.48438 10.5859ZM4.48438 12.9297H11.5156C11.8395 12.9297 12.1016 13.1918 12.1016 13.5156C12.1016 13.8395 11.8395 14.1016 11.5156 14.1016H4.48438C4.16051 14.1016 3.89844 13.8395 3.89844 13.5156C3.89844 13.1918 4.16051 12.9297 4.48438 12.9297ZM4.48438 15.2734H9.17188C9.49574 15.2734 9.75781 15.5355 9.75781 15.8594C9.75781 16.1832 9.49574 16.4453 9.17188 16.4453H4.48438C4.16051 16.4453 3.89844 16.1832 3.89844 15.8594C3.89844 15.5355 4.16051 15.2734 4.48438 15.2734Z" fill="#C2CFE0"/>
</svg>
