<svg width="20" height="20" viewBox="0 0 20 20" fill="none" xmlns="http://www.w3.org/2000/svg">
<path fill-rule="evenodd" clip-rule="evenodd" d="M16.6668 2.49878H3.3335C1.91683 2.49878 0.833496 3.58159 0.833496 4.99757V14.9927C0.833496 16.4087 1.91683 17.4915 3.3335 17.4915H16.6668C18.0835 17.4915 19.1668 16.4087 19.1668 14.9927V4.99757C19.1668 3.58159 18.0835 2.49878 16.6668 2.49878ZM3.3335 4.16464H16.6668C17.0002 4.16464 17.2502 4.33122 17.4168 4.6644L10.0002 9.82856L2.5835 4.6644C2.75017 4.33122 3.00017 4.16464 3.3335 4.16464ZM2.50016 14.9927C2.50016 15.4925 2.8335 15.8256 3.3335 15.8256H16.6668C17.1668 15.8256 17.5002 15.4925 17.5002 14.9927V6.58013L10.5002 11.4944C10.3335 11.5777 10.1668 11.661 10.0002 11.661C9.8335 11.661 9.66683 11.5777 9.50016 11.4944L2.50016 6.58013V14.9927Z" fill="black"/>
<mask id="mask0" style="mask-type:alpha" maskUnits="userSpaceOnUse" x="0" y="2" width="20" height="16">
<path fill-rule="evenodd" clip-rule="evenodd" d="M16.6668 2.49878H3.3335C1.91683 2.49878 0.833496 3.58159 0.833496 4.99757V14.9927C0.833496 16.4087 1.91683 17.4915 3.3335 17.4915H16.6668C18.0835 17.4915 19.1668 16.4087 19.1668 14.9927V4.99757C19.1668 3.58159 18.0835 2.49878 16.6668 2.49878ZM3.3335 4.16464H16.6668C17.0002 4.16464 17.2502 4.33122 17.4168 4.6644L10.0002 9.82856L2.5835 4.6644C2.75017 4.33122 3.00017 4.16464 3.3335 4.16464ZM2.50016 14.9927C2.50016 15.4925 2.8335 15.8256 3.3335 15.8256H16.6668C17.1668 15.8256 17.5002 15.4925 17.5002 14.9927V6.58013L10.5002 11.4944C10.3335 11.5777 10.1668 11.661 10.0002 11.661C9.8335 11.661 9.66683 11.5777 9.50016 11.4944L2.50016 6.58013V14.9927Z" fill="white"/>
</mask>
<g mask="url(#mask0)">
<rect width="20" height="19.9903" fill="#C2CFE0"/>
</g>
</svg>
