<svg width="38" height="52" viewBox="0 0 38 52" fill="none" xmlns="http://www.w3.org/2000/svg">
<path d="M28.6998 12.7269V10.418C28.6998 5.19766 24.3998 0.880859 19.1998 0.880859C13.9998 0.880859 9.69977 5.19766 9.69977 10.418L9.59979 12.8273C4.89979 13.3293 1.09979 17.3449 1.09979 22.1636L0.799805 49.8715C0.799805 50.1726 0.899792 50.3734 1.09979 50.5742C1.29979 50.775 1.4998 50.8754 1.7998 50.8754H36.0998C36.6998 50.8754 37.0998 50.4738 37.0998 49.8715V22.264C37.0998 17.2445 33.3998 13.2289 28.6998 12.7269ZM19.1998 2.88867C23.2998 2.88867 26.6998 6.30195 26.6998 10.418V12.7269H11.6998L11.7998 10.418C11.6998 6.20156 15.0998 2.88867 19.1998 2.88867ZM35.0998 48.7672H2.7998L3.09979 22.0633C3.09979 17.9472 6.49979 14.6344 10.5998 14.6344H27.5998C31.6998 14.6344 35.0998 18.0476 35.0998 22.1636V48.7672Z" fill="#c2cfe0" stroke="#c2cfe0" stroke-width="1.5"/>
<mask id="path-2-inside-1" fill="white">
<path d="M27.5999 41.8402H10.5999C9.99985 41.8402 9.59985 42.2418 9.59985 42.8441C9.59985 43.4465 9.99985 43.848 10.5999 43.848H27.5999C28.1999 43.848 28.5999 43.4465 28.5999 42.8441C28.5999 42.2418 28.1999 41.8402 27.5999 41.8402Z"/>
</mask>
<path d="M27.5999 41.8402H10.5999C9.99985 41.8402 9.59985 42.2418 9.59985 42.8441C9.59985 43.4465 9.99985 43.848 10.5999 43.848H27.5999C28.1999 43.848 28.5999 43.4465 28.5999 42.8441C28.5999 42.2418 28.1999 41.8402 27.5999 41.8402Z" fill=" #c2cfe0}"/>
<path d="M27.5999 37.8402H10.5999V45.8402H27.5999V37.8402ZM10.5999 37.8402C9.38617 37.8402 8.06606 38.2642 7.04092 39.2934C6.01716 40.3211 5.59985 41.6386 5.59985 42.8441H13.5999C13.5999 43.4473 13.3825 44.2628 12.7088 44.9392C12.0337 45.617 11.2135 45.8402 10.5999 45.8402V37.8402ZM5.59985 42.8441C5.59985 44.0496 6.01716 45.3671 7.04092 46.3949C8.06606 47.424 9.38617 47.848 10.5999 47.848V39.848C11.2135 39.848 12.0337 40.0713 12.7088 40.749C13.3825 41.4254 13.5999 42.241 13.5999 42.8441H5.59985ZM10.5999 47.848H27.5999V39.848H10.5999V47.848ZM27.5999 47.848C28.8135 47.848 30.1337 47.424 31.1588 46.3949C32.1825 45.3671 32.5999 44.0496 32.5999 42.8441H24.5999C24.5999 42.241 24.8172 41.4254 25.4909 40.749C26.1661 40.0713 26.9862 39.848 27.5999 39.848V47.848ZM32.5999 42.8441C32.5999 41.6386 32.1825 40.3211 31.1588 39.2934C30.1337 38.2642 28.8135 37.8402 27.5999 37.8402V45.8402C26.9862 45.8402 26.1661 45.617 25.4909 44.9392C24.8172 44.2628 24.5999 43.4473 24.5999 42.8441H32.5999Z" fill="#c2cfe0" mask="url(#path-2-inside-1)"/>
</svg>
