<svg width="16" height="20" viewBox="0 0 16 20" fill="none" xmlns="http://www.w3.org/2000/svg">
<path d="M15.9196 16.4929L15.0264 5.23836C14.9708 4.51328 14.3576 3.94527 13.6304 3.94527H11.8662V3.86598C11.8662 1.73426 10.132 0 8.00023 0C5.86851 0 4.13425 1.73426 4.13425 3.86598V3.94527H2.37011C1.64289 3.94527 1.02965 4.51324 0.974177 5.23684L0.0807392 16.4944C0.0115985 17.3958 0.324294 18.2932 0.938591 18.9564C1.55289 19.6196 2.42371 20 3.32773 20H12.6727C13.5767 20 14.4475 19.6196 15.0619 18.9564C15.6762 18.2931 15.9888 17.3958 15.9196 16.4929ZM5.30574 3.86598C5.30574 2.38023 6.51453 1.17148 8.00023 1.17148C9.48593 1.17148 10.6947 2.38027 10.6947 3.86598V3.94527H5.30574V3.86598ZM14.2024 18.1604C13.8032 18.5912 13.26 18.8285 12.6727 18.8285H3.32777C2.74043 18.8285 2.19722 18.5912 1.79808 18.1604C1.39898 17.7295 1.2039 17.1696 1.24875 16.5855L2.14211 5.32793C2.15117 5.20949 2.25133 5.11676 2.37011 5.11676H4.13425V6.55953C4.13425 6.88301 4.39652 7.14527 4.72 7.14527C5.04347 7.14527 5.30574 6.88301 5.30574 6.55953V5.11676H10.6947V6.55953C10.6947 6.88301 10.957 7.14527 11.2805 7.14527C11.6039 7.14527 11.8662 6.88301 11.8662 6.55953V5.11676H13.6304C13.7491 5.11676 13.8493 5.20953 13.8585 5.32949L14.7517 16.584C14.7966 17.1696 14.6015 17.7294 14.2024 18.1604Z" fill="#C2CFE0"/>
</svg>
