<svg width="18" height="18" viewBox="0 0 18 18" fill="none" xmlns="http://www.w3.org/2000/svg">
<path d="M5.8335 14.0001C4.91683 14.0001 4.17516 14.7501 4.17516 15.6667C4.17516 16.5834 4.91683 17.3334 5.8335 17.3334C6.75016 17.3334 7.50016 16.5834 7.50016 15.6667C7.50016 14.7501 6.75016 14.0001 5.8335 14.0001ZM0.833496 1.50008C0.833496 1.95841 1.2085 2.33341 1.66683 2.33341H2.50016L5.50016 8.65842L4.37516 10.6917C3.76683 11.8084 4.56683 13.1667 5.8335 13.1667H15.0002C15.4585 13.1667 15.8335 12.7917 15.8335 12.3334C15.8335 11.8751 15.4585 11.5001 15.0002 11.5001H5.8335L6.75016 9.83342H12.9585C13.5835 9.83342 14.1335 9.49175 14.4168 8.97508L17.4002 3.56675C17.7085 3.01675 17.3085 2.33341 16.6752 2.33341H4.34183L3.7835 1.14175C3.65016 0.850081 3.35016 0.666748 3.0335 0.666748H1.66683C1.2085 0.666748 0.833496 1.04175 0.833496 1.50008ZM14.1668 14.0001C13.2502 14.0001 12.5085 14.7501 12.5085 15.6667C12.5085 16.5834 13.2502 17.3334 14.1668 17.3334C15.0835 17.3334 15.8335 16.5834 15.8335 15.6667C15.8335 14.7501 15.0835 14.0001 14.1668 14.0001Z" fill="#C2CFE0"/>
</svg>
