<svg width="20" height="15" viewBox="0 0 20 15" fill="none" xmlns="http://www.w3.org/2000/svg">
<path d="M19.078 14.2187H18.2213V1.77872C18.2213 1.19969 17.7502 0.728638 17.1712 0.728638H15.2562C14.6772 0.728638 14.2061 1.19973 14.2061 1.77872V14.2187H12.0307V7.41501C12.0307 6.83598 11.5596 6.36493 10.9806 6.36493H9.06559C8.48656 6.36493 8.01551 6.83602 8.01551 7.41501V14.2187H5.84004V10.6951C5.84004 10.1161 5.36895 9.64504 4.78996 9.64504H2.87492C2.2959 9.64504 1.82484 10.1161 1.82484 10.6951V14.2187H0.921875C0.706133 14.2187 0.53125 14.3936 0.53125 14.6093C0.53125 14.8251 0.706133 15 0.921875 15H19.078C19.2938 15 19.4687 14.8251 19.4687 14.6093C19.4687 14.3936 19.2938 14.2187 19.078 14.2187ZM5.05871 14.2187H2.60605V10.6951C2.60605 10.5469 2.72664 10.4263 2.87488 10.4263H4.78988C4.93812 10.4263 5.05871 10.5469 5.05871 10.6951V14.2187ZM11.2494 14.2187H8.79672V7.41501C8.79672 7.26676 8.9173 7.14618 9.06555 7.14618H10.9805C11.1287 7.14618 11.2494 7.26676 11.2494 7.41501V14.2187ZM17.44 14.2187H14.9874V1.77872C14.9874 1.63047 15.108 1.50989 15.2562 1.50989H17.1712C17.3195 1.50989 17.44 1.63047 17.44 1.77872V14.2187Z" fill="#C2CFE0"/>
</svg>
