<svg width="20" height="19" viewBox="0 0 20 19" fill="none" xmlns="http://www.w3.org/2000/svg">
<path d="M1.05263 0.7H18.9474C19.1397 0.7 19.3 0.860283 19.3 1.05263V7.36842C19.3 7.56077 19.1397 7.72105 18.9474 7.72105H1.05263C0.860284 7.72105 0.7 7.56077 0.7 7.36842V1.05263C0.7 0.860283 0.860284 0.7 1.05263 0.7ZM1.05263 11.2263H18.9474C19.1397 11.2263 19.3 11.3866 19.3 11.5789V17.8947C19.3 18.0871 19.1397 18.2474 18.9474 18.2474H1.05263C0.860283 18.2474 0.7 18.0871 0.7 17.8947V11.5789C0.7 11.3866 0.860283 11.2263 1.05263 11.2263Z" stroke="#C2CFE0" stroke-width="1.4"/>
</svg>
