<svg width="20" height="20" viewBox="0 0 20 20" fill="none" xmlns="http://www.w3.org/2000/svg">
<path d="M19.5604 9.56329C19.5593 4.28055 15.2759 -0.00106792 9.99298 1.99801e-07C4.71024 0.00106832 0.42862 4.28467 0.429688 9.56741C0.430603 13.7286 3.12149 17.4118 7.08557 18.6775C7.12341 18.6894 7.16278 18.6955 7.2023 18.6954C7.27768 18.6952 7.35153 18.6751 7.41638 18.6368C7.50076 18.5869 7.56378 18.5075 7.59338 18.414L10.009 10.7578C10.6694 10.7544 11.2019 10.2162 11.1984 9.55597C11.1951 8.89557 10.657 8.36304 9.99664 8.36639C9.81903 8.36716 9.64371 8.40805 9.4841 8.48602L6.29288 5.29434C6.13449 5.14145 5.88226 5.14587 5.72937 5.30411C5.58014 5.45868 5.58014 5.70343 5.72937 5.858L8.91891 9.05121C8.67416 9.55078 8.81409 10.1538 9.25415 10.4944L6.95251 17.7899C2.40387 16.1143 0.0747682 11.0687 1.75034 6.52008C3.4259 1.97144 8.47153 -0.357666 13.0202 1.3179C17.5688 2.99347 19.8979 8.03925 18.2223 12.5877C17.4037 14.81 15.7217 16.6072 13.5585 17.5711L13.3098 16.3997C13.2643 16.1844 13.0527 16.0468 12.8374 16.0924C12.7695 16.1069 12.7065 16.1388 12.6546 16.185L10.2565 18.326C10.092 18.4723 10.0774 18.7242 10.2238 18.8887C10.2715 18.9421 10.3325 18.9818 10.4008 19.0036L13.4625 19.9808C13.672 20.0481 13.8965 19.9329 13.9638 19.7232C13.9851 19.657 13.9886 19.5865 13.9743 19.5184L13.7299 18.369C17.27 16.8765 19.5686 13.4052 19.5604 9.56329ZM9.99512 9.16473C10.2151 9.16473 10.3937 9.34326 10.3937 9.56329C10.3937 9.78348 10.2151 9.96185 9.99512 9.96185C9.77493 9.96185 9.59656 9.78348 9.59656 9.56329C9.59656 9.34326 9.77493 9.16473 9.99512 9.16473ZM11.3078 18.4547L12.6729 17.2371L13.0496 19.0123L11.3078 18.4547Z" fill="#C2CFE0"/>
</svg>
